<svg xmlns="http://www.w3.org/2000/svg" style="display:none">
  <!-- Type icons: 24x24 viewBox -->
  <symbol id="icon-neutral" viewBox="0 0 24 24">
    <circle cx="12" cy="12" r="10" fill="none" stroke="currentColor" stroke-width="2"/>
    <circle cx="12" cy="12" r="3" fill="currentColor"/>
  </symbol>
  <symbol id="icon-fire" viewBox="0 0 24 24">
    <path d="M12 2c0 2-3 5-3 8 0 1.5.5 2.5 1.5 3.5C9 13 8 14 8 15.5c0 2 1.5 4.5 4 5.5 2.5-1 4-3.5 4-5.5 0-1.5-1-2.5-2.5-2 1-1 1.5-2 1.5-3.5 0-3-3-6-3-8z" fill="currentColor"/>
  </symbol>
  <symbol id="icon-water" viewBox="0 0 24 24">
    <path d="M12 3c-3 4-7 8-7 12 0 3.5 3 6 7 6s7-2.5 7-6c0-4-4-8-7-12z" fill="none" stroke="currentColor" stroke-width="2"/>
  </symbol>
  <symbol id="icon-grass" viewBox="0 0 24 24">
    <path d="M12 20c-2-6-4-10-6-12 1 4 1 8 2 12M12 20c2-5 5-9 8-11-2 4-3 8-3 11" fill="none" stroke="currentColor" stroke-width="2" stroke-linecap="round"/>
  </symbol>
  <symbol id="icon-electric" viewBox="0 0 24 24">
    <path d="M13 2L7 13h5l-1 9 8-11h-5l2-9z" fill="currentColor"/>
  </symbol>
  <symbol id="icon-ice" viewBox="0 0 24 24">
    <path d="M12 2v20M2 12h20M5 5l14 14M19 5L5 19" stroke="currentColor" stroke-width="2" stroke-linecap="round"/>
  </symbol>
  <symbol id="icon-ground" viewBox="0 0 24 24">
    <path d="M4 16h16M4 20h16M7 16l3-6 3 4 4-8 3 10" fill="none" stroke="currentColor" stroke-width="2" stroke-linecap="round" stroke-linejoin="round"/>
  </symbol>
  <symbol id="icon-dark" viewBox="0 0 24 24">
    <path d="M12 2a10 10 0 1 0 0 20 10 10 0 0 0 0-20zm0 3a7 7 0 1 1 0 14 7 7 0 0 1 0-14z" fill="currentColor"/>
  </symbol>
  <symbol id="icon-dragon" viewBox="0 0 24 24">
    <path d="M4 12c2-3 6-5 10-5 4 0 6 2 6 5s-2 5-6 5c-2 0-4-1-5-2l-5 2 2-5z" fill="none" stroke="currentColor" stroke-width="2" stroke-linejoin="round"/>
  </symbol>
  <!-- Utility icons -->
  <symbol id="icon-share" viewBox="0 0 24 24">
    <path d="M18 8a3 3 0 1 0-2.2-1L8.8 10.5a3 3 0 1 0 0 3l6.9 3.5a3 3 0 1 0 1-2.1L10 12.5l5.8-3.5z" fill="currentColor"/>
  </symbol>
  <symbol id="icon-search" viewBox="0 0 24 24">
    <circle cx="11" cy="11" r="7" fill="none" stroke="currentColor" stroke-width="2"/>
    <path d="M16 16l5 5" stroke="currentColor" stroke-width="2" stroke-linecap="round"/>
  </symbol>
  <symbol id="icon-copy" viewBox="0 0 24 24">
    <rect x="8" y="8" width="12" height="12" rx="2" fill="none" stroke="currentColor" stroke-width="2"/>
    <path d="M4 16V6a2 2 0 0 1 2-2h10" fill="none" stroke="currentColor" stroke-width="2"/>
  </symbol>
  <symbol id="icon-check" viewBox="0 0 24 24">
    <path d="M4 12l6 6 10-14" fill="none" stroke="currentColor" stroke-width="2" stroke-linecap="round" stroke-linejoin="round"/>
  </symbol>
  <symbol id="icon-arrow-right" viewBox="0 0 24 24">
    <path d="M5 12h14M13 6l6 6-6 6" fill="none" stroke="currentColor" stroke-width="2" stroke-linecap="round" stroke-linejoin="round"/>
  </symbol>
  <symbol id="icon-chevron-down" viewBox="0 0 24 24">
    <path d="M6 9l6 6 6-6" fill="none" stroke="currentColor" stroke-width="2" stroke-linecap="round" stroke-linejoin="round"/>
  </symbol>
  <symbol id="icon-menu" viewBox="0 0 24 24">
    <path d="M4 6h16M4 12h16M4 18h16" stroke="currentColor" stroke-width="2" stroke-linecap="round"/>
  </symbol>
  <symbol id="icon-close" viewBox="0 0 24 24">
    <path d="M6 6l12 12M18 6L6 18" stroke="currentColor" stroke-width="2" stroke-linecap="round"/>
  </symbol>
  <symbol id="icon-logo" viewBox="0 0 32 32">
    <rect x="2" y="2" width="28" height="28" rx="6" fill="#F5A623"/>
    <path d="M8 22c2-6 5-10 8-12 3 2 6 6 8 12H8z" fill="#0B0F12"/>
    <circle cx="16" cy="14" r="3" fill="#F5A623"/>
  </symbol>
</svg>
